HIERARCHY
ROOT ui
{
	 OFFSET 0 0 0
	 CHANNELS 3 XPosition YPosition Z Position
	 EndSite
	 {
	 OFFSET 0 -1 0
	 }
}
ROOT li
{
	 OFFSET 0 0 0
	 CHANNELS 3 XPosition YPosition Z Position
	 EndSite
	 {
	 OFFSET 0 -1 0
	 }
}
ROOT ul
{
	 OFFSET 0 0 0
	 CHANNELS 3 XPosition YPosition Z Position
	 EndSite
	 {
	 OFFSET 0 -1 0
	 }
}
ROOT ll
{
	 OFFSET 0 0 0
	 CHANNELS 3 XPosition YPosition Z Position
	 EndSite
	 {
	 OFFSET 0 -1 0
	 }
}
ROOT tt
{
	 OFFSET 0 0 0
	 CHANNELS 3 XPosition YPosition Z Position
	 EndSite
	 {
	 OFFSET 0 -1 0
	 }
}
ROOT tb
{
	 OFFSET 0 0 0
	 CHANNELS 3 XPosition YPosition Z Position
	 EndSite
	 {
	 OFFSET 0 -1 0
	 }
}
ROOT td
{
	 OFFSET 0 0 0
	 CHANNELS 3 XPosition YPosition Z Position
	 EndSite
	 {
	 OFFSET 0 -1 0
	 }
}
ROOT v
{
	 OFFSET 0 0 0
	 CHANNELS 3 XPosition YPosition Z Position
	 EndSite
	 {
	 OFFSET 0 -1 0
	 }
}
ROOT bn
{
	 OFFSET 0 0 0
	 CHANNELS 3 XPosition YPosition Z Position
	 EndSite
	 {
	 OFFSET 0 -1 0
	 }
}
MOTION
Frames: 10
Frame Time: 0.002
-0.010718077659606933	1.2114399671554566E-4	0		0.4786233825683594	-2.35696630859375	0		-1.1275146484375	-0.024828655242919922	0		-0.7512078247070313	-2.289459716796875	0		1.4300546875	-0.5830486450195312	0		3.12166259765625	-0.06236537933349609	0		4.54280517578125	0.16107479858398438	0		5.5400439453125	0.16505825805664062	0		-0.2163599395751953	5.9149228515625	0		
0.032956447601318356	-0.008854199409484863	0		0.5034570617675781	-2.359528564453125	0		-1.13354833984375	-0.019742654800415038	0		-0.7754496459960938	-2.294979736328125	0		1.388970458984375	-0.5801807250976563	0		3.0965908203125	-0.058823776245117185	0		4.531986328125	0.17632762145996095	0		5.53282763671875	0.16721109008789062	0		-0.2175453643798828	5.915912109375	0		
-0.011076627731323242	5.9278998523950574E-5	0		0.4912258605957031	-2.361296630859375	0		-1.1607789306640626	-0.02020506477355957	0		-0.7735986938476562	-2.29306298828125	0		1.3976943359375	-0.5833910522460938	0		3.096375732421875	-0.05882336807250976	0		4.53659521484375	0.16823724365234374	0		5.53449267578125	0.13082077026367187	0		-0.33409689331054687	5.90437744140625	0		
0.04168726730346679	8.845229744911194E-4	0		0.4950880126953125	-2.356413330078125	0		-1.15696044921875	-0.016337223052978515	0		-0.8036217651367188	-2.282461669921875	0		1.3836083984375	-0.5751127319335938	0		3.11499755859375	-0.0642357177734375	0		4.5342841796875	0.16628955078125	0		5.5436806640625	0.14247441101074218	0		-0.20099880981445312	5.922474609375	0		
-0.007580366134643555	0.0029018189907073976	0		0.4808968200683594	-2.352145263671875	0		-1.08838427734375	-0.022865837097167968	0		-0.7130313720703125	-2.289460205078125	0		1.3912894287109374	-0.57630908203125	0		3.111784423828125	-0.06018203735351563	0		4.54602294921875	0.1680332489013672	0		5.535232421875	0.17925968933105468	0		-0.2175179138183594	5.9147822265625	0		
0.03800287628173828	-0.0021244969367980957	0		0.4805948486328125	-2.35218017578125	0		-1.1287593994140626	-0.025052314758300782	0		-0.7852312622070312	-2.283957763671875	0		1.3909737548828125	-0.5763368530273437	0		3.080493408203125	-0.05853044128417969	0		4.530876953125	0.17635040283203124	0		5.54739599609375	0.12843814086914063	0		-0.21788372802734374	5.9147421875	0		
-0.03728775405883789	4.4624298810958863E-4	0		0.47717559814453125	-2.35715185546875	0		-1.0930970458984375	-0.02587468147277832	0		-0.741833740234375	-2.297946533203125	0		1.387563232421875	-0.58030224609375	0		3.100987548828125	-0.0669984130859375	0		4.54122119140625	0.16110934448242187	0		5.53592138671875	0.14805593872070313	0		-0.2182556915283203	5.91469970703125	0		
0.03734309387207031	-0.0022078649997711182	0		0.4897724914550781	-2.361469970703125	0		-1.1623253173828125	-0.02044420051574707	0		-0.8109820556640625	-2.28951416015625	0		1.37034814453125	-0.5749718627929687	0		3.10065771484375	-0.06702024078369141	0		4.53504150390625	0.16822467041015626	0		5.546927734375	0.12842588806152344	0		-0.20441514587402343	5.92435205078125	0		
-0.008884268760681152	0.002733670949935913	0		0.5096960754394532	-2.350944091796875	0		-1.0896873779296874	-0.02306479072570801	0		-0.76921435546875	-2.286468017578125	0		1.376177001953125	-0.5681386108398437	0		3.110482177734375	-0.060261276245117186	0		4.53401708984375	0.18222785949707032	0		5.54254150390625	0.14247032165527343	0		-0.20477882385253907	5.92430517578125	0		
0.03977116775512695	6.341580152511597E-4	0		0.47936383056640625	-2.35234423828125	0		-1.1328603515625	-0.01619821357727051	0		-0.7756598510742188	-2.293390625	0		1.389694091796875	-0.5764760131835938	0		3.11501953125	-0.06739426422119141	0		4.5444013671875	0.1679770965576172	0		5.5423662109375	0.14763880920410155	0		-0.2051298065185547	5.924255859375	0		
